<?xml version="1.0" standalone="no"?>
<!DOCTYPE svg PUBLIC "-//W3C//DTD SVG 20010904//EN"
 "http://www.w3.org/TR/2001/REC-SVG-20010904/DTD/svg10.dtd">
<svg version="1.0" xmlns="http://www.w3.org/2000/svg"
 width="700.000000pt" height="700.000000pt" viewBox="0 0 700.000000 700.000000"
 preserveAspectRatio="xMidYMid meet">
<metadata>
Created by potrace 1.14, written by Peter Selinger 2001-2017
</metadata>
<g transform="translate(0.000000,700.000000) scale(0.100000,-0.100000)"
fill="#000000" stroke="none">
<path d="M2511 6112 c-171 -35 -297 -154 -392 -375 -34 -77 -105 -298 -124
-382 -3 -16 -11 -47 -16 -67 l-10 -38 -792 0 c-853 0 -838 1 -944 -54 -63 -31
-141 -108 -177 -172 -59 -106 -56 19 -56 -2171 0 -1323 3 -2028 10 -2064 32
-168 190 -321 355 -345 68 -9 6151 -11 6244 -1 186 19 341 159 380 345 14 69
15 4056 1 4119 -27 116 -123 241 -224 292 -104 51 -94 51 -943 51 l-793 0 -6
28 c-58 250 -131 456 -204 582 -74 127 -193 220 -320 251 -81 19 -1893 20
-1989 1z m1184 -1337 c136 -14 330 -56 425 -92 36 -13 85 -31 110 -40 24 -8
95 -41 157 -74 566 -293 949 -834 1037 -1464 14 -102 15 -454 1 -525 -50 -262
-98 -418 -180 -584 -195 -395 -497 -699 -895 -897 -141 -70 -371 -146 -505
-166 -16 -2 -41 -6 -55 -9 -150 -26 -439 -24 -610 5 -126 21 -373 91 -394 112
-6 5 -16 9 -23 9 -22 0 -199 91 -298 153 -340 212 -620 549 -769 925 -35 88
-81 236 -91 291 -3 14 -7 37 -10 51 -2 13 -7 42 -11 65 -3 22 -9 60 -14 85 -9
49 -6 426 4 480 4 19 12 62 17 95 12 72 46 212 58 240 5 11 21 54 37 95 140
376 397 699 738 929 39 27 96 61 126 76 30 16 66 36 80 46 14 9 28 17 33 18 4
0 24 8 45 17 165 70 324 119 452 139 25 4 54 9 65 11 11 3 61 7 110 10 50 4
91 8 93 9 5 4 200 -3 267 -10z m2863 -412 c9 -14 7 -411 -2 -420 -3 -3 -199
-7 -436 -7 l-430 -1 -1 80 c0 76 0 313 1 345 0 13 55 15 430 15 313 0 433 -3
438 -12z"/>
<path d="M3330 4254 c-255 -31 -480 -122 -689 -277 -80 -59 -217 -199 -284
-288 -109 -147 -206 -359 -243 -532 -9 -40 -18 -81 -21 -92 -3 -11 -7 -96 -9
-190 -2 -135 1 -192 16 -276 55 -299 183 -543 396 -754 150 -149 239 -212 415
-293 186 -87 360 -125 579 -126 194 0 299 16 471 74 326 109 621 360 793 674
68 122 137 332 154 466 15 117 8 379 -13 480 -3 14 -7 35 -9 47 -24 127 -122
345 -219 487 -142 209 -410 423 -637 509 -14 5 -34 13 -45 18 -55 21 -151 47
-240 63 -117 22 -285 26 -415 10z"/>
</g>
</svg>
